# xmcd CD database file
#
# Track frame offsets:
#	150
#	20765
#	40560
#	56430
#	84695
#	101082
#	116852
#	144985
#	159847
#	178467
#	207230
#	225270
#	243920
#
# Disc length: 3498 seconds
#
# Revision: 0
# Processed by: cddbd v1.4PL0 Copyright (c) Steve Scherf et al.
# Submitted via: CDex 1.40Release
#
DISCID=a70da80d
DTITLE=Alan Rhody - Journey
DYEAR=2001
DGENRE=Country
TTITLE0=Real Big Country
TTITLE1=The Wind In Her Hair
TTITLE2=That's Who I'd Be Duet w/John Prine
TTITLE3=1952 Vincent Black Lightning
TTITLE4=Stronger Too
TTITLE5=Path of the Moon (Duet w/Maura O"Connell)
TTITLE6=Drifter's Wind
TTITLE7=I Love You Anyway Uncle John
TTITLE8=Merci Beaucoup
TTITLE9=Charlene and the Quarterback
TTITLE10=Trainwreck of Emotion
TTITLE11=Goodbye Kiss
TTITLE12=Journey
EXTD=YEAR: 2001 ID3G: 2
EXTT0=
EXTT1=
EXTT2=
EXTT3=
EXTT4=
EXTT5=
EXTT6=
EXTT7=
EXTT8=
EXTT9=
EXTT10=
EXTT11=
EXTT12=
PLAYORDER=
